<?xml version="1.0" encoding="utf-8"?>
<!-- Generator: Adobe Illustrator 26.2.1, SVG Export Plug-In . SVG Version: 6.00 Build 0)  -->
<svg version="1.1" id="Layer_1" xmlns="http://www.w3.org/2000/svg" xmlns:xlink="http://www.w3.org/1999/xlink" x="0px" y="0px"
	 viewBox="0 0 1440 145" style="enable-background:new 0 0 1440 145;" xml:space="preserve">
<style type="text/css">
	.st0{fill:#C4D5D5;}
</style>
<path class="st0" d="M0,139l48-13.2c48-13.5,144-39.5,240-43.1c96-3.3,192,16.6,288,13.3c96-3.5,192-29.6,288-36.4s192,6.8,288,16.6
	c96,10.1,192,16.3,240,19.9l48,3.3V0h-48c-48,0-144,0-240,0S960,0,864,0S672,0,576,0S384,0,288,0S96,0,48,0H0V139z"/>
</svg>
