<?xml version="1.0" encoding="utf-8"?>
<!-- Generator: Adobe Illustrator 26.2.1, SVG Export Plug-In . SVG Version: 6.00 Build 0)  -->
<svg version="1.1" id="Layer_1" xmlns="http://www.w3.org/2000/svg" xmlns:xlink="http://www.w3.org/1999/xlink" x="0px" y="0px"
	 viewBox="0 0 1440 219.6" style="enable-background:new 0 0 1440 219.6;" xml:space="preserve">
<style type="text/css">
	.st0{fill:#C4D5D5;}
</style>
<path class="st0" d="M0,209.4l48-5.3c48-5.7,144-15.7,240-37.4c96-21.3,192-53.3,288-53.3s192,32,288,16s192-80,288-90.7
	c96-10.3,192,31.7,240,53.4l48,21.3v-192h-48c-48,0-144,0-240,0s-192,0-288,0s-192,0-288,0s-192,0-288,0s-192,0-240,0H0V209.4z"/>
</svg>
