<?xml version="1.0" encoding="utf-8"?>
<!-- Generator: Adobe Illustrator 26.2.1, SVG Export Plug-In . SVG Version: 6.00 Build 0)  -->
<svg version="1.1" id="Layer_1" xmlns="http://www.w3.org/2000/svg" xmlns:xlink="http://www.w3.org/1999/xlink" x="0px" y="0px"
	 viewBox="0 0 1440 145.6" style="enable-background:new 0 0 1440 145.6;" xml:space="preserve">
<style type="text/css">
	.st0{fill:#C4D5D5;}
</style>
<path class="st0" d="M0,64.6l48,16.1c48,16.1,144,48.4,240,45.7c96-2.9,192-40.2,288-53.8s192-2.5,288,16.1s192,45.9,288,45.7
	c96,0.2,192-27.1,240-40.3l48-13.5V0h-48c-48,0-144,0-240,0S960,0,864,0S672,0,576,0S384,0,288,0S96,0,48,0H0V64.6z"/>
</svg>
